<svg xmlns="http://www.w3.org/2000/svg" viewBox="-76 -44 1176 1186" width="256" height="258" role="img" aria-label="2B">
  <title>2B</title>
  <defs>
    <path id="sq" d="M1024.0,512.0 L1023.9,628.2 L1023.8,665.3 L1023.4,692.3 L1023.0,714.2 L1022.5,733.0 L1021.8,749.6 L1021.0,764.6 L1020.0,778.3 L1019.0,791.0 L1017.8,802.7 L1016.5,813.8 L1015.1,824.2 L1013.5,834.0 L1011.8,843.3 L1010.0,852.2 L1008.0,860.7 L1006.0,868.7 L1003.7,876.5 L1001.4,883.9 L998.9,891.0 L996.3,897.8 L993.5,904.4 L990.6,910.7 L987.6,916.7 L984.4,922.6 L981.0,928.2 L977.5,933.6 L973.9,938.8 L970.1,943.8 L966.1,948.6 L962.0,953.3 L957.7,957.7 L953.3,962.0 L948.6,966.1 L943.8,970.1 L938.8,973.9 L933.6,977.5 L928.2,981.0 L922.6,984.4 L916.7,987.6 L910.7,990.6 L904.4,993.5 L897.8,996.3 L891.0,998.9 L883.9,1001.4 L876.5,1003.7 L868.7,1006.0 L860.7,1008.0 L852.2,1010.0 L843.3,1011.8 L834.0,1013.5 L824.2,1015.1 L813.8,1016.5 L802.7,1017.8 L791.0,1019.0 L778.3,1020.0 L764.6,1021.0 L749.6,1021.8 L733.0,1022.5 L714.2,1023.0 L692.3,1023.4 L665.3,1023.8 L628.2,1023.9 L512.0,1024.0 L395.8,1023.9 L358.7,1023.8 L331.7,1023.4 L309.8,1023.0 L291.0,1022.5 L274.4,1021.8 L259.4,1021.0 L245.7,1020.0 L233.0,1019.0 L221.3,1017.8 L210.2,1016.5 L199.8,1015.1 L190.0,1013.5 L180.7,1011.8 L171.8,1010.0 L163.3,1008.0 L155.3,1006.0 L147.5,1003.7 L140.1,1001.4 L133.0,998.9 L126.2,996.3 L119.6,993.5 L113.3,990.6 L107.3,987.6 L101.4,984.4 L95.8,981.0 L90.4,977.5 L85.2,973.9 L80.2,970.1 L75.4,966.1 L70.7,962.0 L66.3,957.7 L62.0,953.3 L57.9,948.6 L53.9,943.8 L50.1,938.8 L46.5,933.6 L43.0,928.2 L39.6,922.6 L36.4,916.7 L33.4,910.7 L30.5,904.4 L27.7,897.8 L25.1,891.0 L22.6,883.9 L20.3,876.5 L18.0,868.7 L16.0,860.7 L14.0,852.2 L12.2,843.3 L10.5,834.0 L8.9,824.2 L7.5,813.8 L6.2,802.7 L5.0,791.0 L4.0,778.3 L3.0,764.6 L2.2,749.6 L1.5,733.0 L1.0,714.2 L0.6,692.3 L0.2,665.3 L0.1,628.2 L0.0,512.0 L0.1,395.8 L0.2,358.7 L0.6,331.7 L1.0,309.8 L1.5,291.0 L2.2,274.4 L3.0,259.4 L4.0,245.7 L5.0,233.0 L6.2,221.3 L7.5,210.2 L8.9,199.8 L10.5,190.0 L12.2,180.7 L14.0,171.8 L16.0,163.3 L18.0,155.3 L20.3,147.5 L22.6,140.1 L25.1,133.0 L27.7,126.2 L30.5,119.6 L33.4,113.3 L36.4,107.3 L39.6,101.4 L43.0,95.8 L46.5,90.4 L50.1,85.2 L53.9,80.2 L57.9,75.4 L62.0,70.7 L66.3,66.3 L70.7,62.0 L75.4,57.9 L80.2,53.9 L85.2,50.1 L90.4,46.5 L95.8,43.0 L101.4,39.6 L107.3,36.4 L113.3,33.4 L119.6,30.5 L126.2,27.7 L133.0,25.1 L140.1,22.6 L147.5,20.3 L155.3,18.0 L163.3,16.0 L171.8,14.0 L180.7,12.2 L190.0,10.5 L199.8,8.9 L210.2,7.5 L221.3,6.2 L233.0,5.0 L245.7,4.0 L259.4,3.0 L274.4,2.2 L291.0,1.5 L309.8,1.0 L331.7,0.6 L358.7,0.2 L395.8,0.1 L512.0,0.0 L628.2,0.1 L665.3,0.2 L692.3,0.6 L714.2,1.0 L733.0,1.5 L749.6,2.2 L764.6,3.0 L778.3,4.0 L791.0,5.0 L802.7,6.2 L813.8,7.5 L824.2,8.9 L834.0,10.5 L843.3,12.2 L852.2,14.0 L860.7,16.0 L868.7,18.0 L876.5,20.3 L883.9,22.6 L891.0,25.1 L897.8,27.7 L904.4,30.5 L910.7,33.4 L916.7,36.4 L922.6,39.6 L928.2,43.0 L933.6,46.5 L938.8,50.1 L943.8,53.9 L948.6,57.9 L953.3,62.0 L957.7,66.3 L962.0,70.7 L966.1,75.4 L970.1,80.2 L973.9,85.2 L977.5,90.4 L981.0,95.8 L984.4,101.4 L987.6,107.3 L990.6,113.3 L993.5,119.6 L996.3,126.2 L998.9,133.0 L1001.4,140.1 L1003.7,147.5 L1006.0,155.3 L1008.0,163.3 L1010.0,171.8 L1011.8,180.7 L1013.5,190.0 L1015.1,199.8 L1016.5,210.2 L1017.8,221.3 L1019.0,233.0 L1020.0,245.7 L1021.0,259.4 L1021.8,274.4 L1022.5,291.0 L1023.0,309.8 L1023.4,331.7 L1023.8,358.7 L1023.9,395.8Z"/>
    <clipPath id="tile"><use href="#sq"/></clipPath>
    <!-- the terminal's background (mintty.conf), a shade warmer toward the bottom -->
    <linearGradient id="paper" x1="0" y1="0" x2="0" y2="1"><stop offset="0" stop-color="#fcf9f3"/><stop offset="1" stop-color="#f2eadc"/></linearGradient>
    <!-- the banner's gradient (theme.ts): amber, rose, violet -->
    <linearGradient id="art" gradientUnits="userSpaceOnUse" x1="57" y1="0" x2="967" y2="0">
      <stop offset="0" stop-color="#c88214"/><stop offset=".5" stop-color="#dc4b78"/><stop offset="1" stop-color="#9664d7"/>
    </linearGradient>
    <linearGradient id="tileRim" x1="0" y1="0" x2="1" y2="1"><stop offset="0" stop-color="#fff" stop-opacity=".9"/><stop offset=".5" stop-color="#fff" stop-opacity=".2"/><stop offset="1" stop-color="#fff" stop-opacity=".6"/></linearGradient>
    <filter id="ambient" filterUnits="userSpaceOnUse" x="-76" y="-44" width="1176" height="1186"><feGaussianBlur stdDeviation="34"/></filter>
    <filter id="contact" filterUnits="userSpaceOnUse" x="-76" y="-44" width="1176" height="1186"><feGaussianBlur stdDeviation="12"/></filter>
  </defs>
  <!-- drop shadow: a soft warm glow plus a tight contact shadow -->
  <use href="#sq" fill="#6b4a2a" opacity=".22" filter="url(#ambient)" transform="translate(512 512) scale(0.93) translate(-512 -512) translate(0 46)"/>
  <use href="#sq" fill="#3a2a1a" opacity=".3" filter="url(#contact)" transform="translate(512 512) scale(0.965) translate(-512 -512) translate(0 18)"/>
  <use href="#sq" fill="url(#paper)"/>
  <g clip-path="url(#tile)" fill="url(#art)"><circle cx="157.4" cy="125.2" r="6.0"/><circle cx="170.8" cy="138.6" r="6.0"/><circle cx="170.8" cy="152.0" r="6.0"/><circle cx="184.1" cy="138.6" r="6.0"/><circle cx="184.1" cy="152.0" r="6.0"/><circle cx="184.1" cy="165.4" r="6.0"/><circle cx="197.5" cy="152.0" r="6.0"/><circle cx="197.5" cy="165.4" r="6.0"/><circle cx="210.9" cy="165.4" r="6.0"/><circle cx="398.3" cy="165.4" r="6.0"/><circle cx="411.6" cy="165.4" r="6.0"/><circle cx="425.0" cy="165.4" r="6.0"/><circle cx="438.4" cy="165.4" r="6.0"/><circle cx="451.8" cy="165.4" r="6.0"/><circle cx="465.2" cy="165.4" r="6.0"/><circle cx="478.5" cy="165.4" r="6.0"/><circle cx="491.9" cy="165.4" r="6.0"/><circle cx="505.3" cy="165.4" r="6.0"/><circle cx="518.7" cy="165.4" r="6.0"/><circle cx="532.1" cy="165.4" r="6.0"/><circle cx="210.9" cy="178.7" r="6.0"/><circle cx="224.3" cy="178.7" r="6.0"/><circle cx="224.3" cy="192.1" r="6.0"/><circle cx="237.7" cy="178.7" r="6.0"/><circle cx="237.7" cy="192.1" r="6.0"/><circle cx="251.0" cy="178.7" r="6.0"/><circle cx="251.0" cy="192.1" r="6.0"/><circle cx="251.0" cy="205.5" r="6.0"/><circle cx="264.4" cy="178.7" r="6.0"/><circle cx="264.4" cy="192.1" r="6.0"/><circle cx="277.8" cy="192.1" r="6.0"/><circle cx="291.2" cy="192.1" r="6.0"/><circle cx="277.8" cy="218.9" r="6.0"/><circle cx="291.2" cy="218.9" r="6.0"/><circle cx="304.6" cy="192.1" r="6.0"/><circle cx="318.0" cy="192.1" r="6.0"/><circle cx="304.6" cy="218.9" r="6.0"/><circle cx="318.0" cy="218.9" r="6.0"/><circle cx="331.3" cy="192.1" r="6.0"/><circle cx="344.7" cy="192.1" r="6.0"/><circle cx="358.1" cy="178.7" r="6.0"/><circle cx="358.1" cy="192.1" r="6.0"/><circle cx="371.5" cy="178.7" r="6.0"/><circle cx="371.5" cy="192.1" r="6.0"/><circle cx="384.9" cy="178.7" r="6.0"/><circle cx="384.9" cy="192.1" r="6.0"/><circle cx="398.3" cy="192.1" r="6.0"/><circle cx="398.3" cy="218.9" r="6.0"/><circle cx="411.6" cy="192.1" r="6.0"/><circle cx="425.0" cy="192.1" r="6.0"/><circle cx="425.0" cy="205.5" r="6.0"/><circle cx="411.6" cy="218.9" r="6.0"/><circle cx="425.0" cy="218.9" r="6.0"/><circle cx="438.4" cy="192.1" r="6.0"/><circle cx="438.4" cy="205.5" r="6.0"/><circle cx="451.8" cy="192.1" r="6.0"/><circle cx="451.8" cy="205.5" r="6.0"/><circle cx="438.4" cy="218.9" r="6.0"/><circle cx="451.8" cy="218.9" r="6.0"/><circle cx="465.2" cy="178.7" r="6.0"/><circle cx="465.2" cy="192.1" r="6.0"/><circle cx="465.2" cy="205.5" r="6.0"/><circle cx="478.5" cy="178.7" r="6.0"/><circle cx="478.5" cy="192.1" r="6.0"/><circle cx="478.5" cy="205.5" r="6.0"/><circle cx="465.2" cy="218.9" r="6.0"/><circle cx="478.5" cy="218.9" r="6.0"/><circle cx="491.9" cy="178.7" r="6.0"/><circle cx="491.9" cy="192.1" r="6.0"/><circle cx="491.9" cy="205.5" r="6.0"/><circle cx="505.3" cy="178.7" r="6.0"/><circle cx="505.3" cy="192.1" r="6.0"/><circle cx="505.3" cy="205.5" r="6.0"/><circle cx="491.9" cy="218.9" r="6.0"/><circle cx="505.3" cy="218.9" r="6.0"/><circle cx="518.7" cy="178.7" r="6.0"/><circle cx="518.7" cy="205.5" r="6.0"/><circle cx="532.1" cy="178.7" r="6.0"/><circle cx="532.1" cy="205.5" r="6.0"/><circle cx="518.7" cy="218.9" r="6.0"/><circle cx="532.1" cy="218.9" r="6.0"/><circle cx="545.5" cy="178.7" r="6.0"/><circle cx="545.5" cy="205.5" r="6.0"/><circle cx="558.8" cy="178.7" r="6.0"/><circle cx="558.8" cy="205.5" r="6.0"/><circle cx="545.5" cy="218.9" r="6.0"/><circle cx="558.8" cy="218.9" r="6.0"/><circle cx="572.2" cy="178.7" r="6.0"/><circle cx="572.2" cy="205.5" r="6.0"/><circle cx="585.6" cy="178.7" r="6.0"/><circle cx="585.6" cy="205.5" r="6.0"/><circle cx="572.2" cy="218.9" r="6.0"/><circle cx="585.6" cy="218.9" r="6.0"/><circle cx="599.0" cy="178.7" r="6.0"/><circle cx="612.4" cy="178.7" r="6.0"/><circle cx="612.4" cy="192.1" r="6.0"/><circle cx="599.0" cy="218.9" r="6.0"/><circle cx="612.4" cy="218.9" r="6.0"/><circle cx="625.8" cy="178.7" r="6.0"/><circle cx="625.8" cy="192.1" r="6.0"/><circle cx="639.1" cy="192.1" r="6.0"/><circle cx="625.8" cy="218.9" r="6.0"/><circle cx="652.5" cy="192.1" r="6.0"/><circle cx="665.9" cy="192.1" r="6.0"/><circle cx="665.9" cy="205.5" r="6.0"/><circle cx="679.3" cy="205.5" r="6.0"/><circle cx="679.3" cy="218.9" r="6.0"/><circle cx="692.7" cy="218.9" r="6.0"/><circle cx="237.7" cy="272.4" r="6.0"/><circle cx="251.0" cy="259.0" r="6.0"/><circle cx="264.4" cy="245.7" r="6.0"/><circle cx="264.4" cy="259.0" r="6.0"/><circle cx="251.0" cy="272.4" r="6.0"/><circle cx="277.8" cy="232.3" r="6.0"/><circle cx="277.8" cy="245.7" r="6.0"/><circle cx="291.2" cy="232.3" r="6.0"/><circle cx="291.2" cy="259.0" r="6.0"/><circle cx="277.8" cy="272.4" r="6.0"/><circle cx="291.2" cy="272.4" r="6.0"/><circle cx="304.6" cy="259.0" r="6.0"/><circle cx="318.0" cy="245.7" r="6.0"/><circle cx="331.3" cy="232.3" r="6.0"/><circle cx="331.3" cy="245.7" r="6.0"/><circle cx="344.7" cy="232.3" r="6.0"/><circle cx="371.5" cy="245.7" r="6.0"/><circle cx="371.5" cy="259.0" r="6.0"/><circle cx="384.9" cy="232.3" r="6.0"/><circle cx="384.9" cy="245.7" r="6.0"/><circle cx="384.9" cy="259.0" r="6.0"/><circle cx="398.3" cy="232.3" r="6.0"/><circle cx="398.3" cy="245.7" r="6.0"/><circle cx="398.3" cy="259.0" r="6.0"/><circle cx="411.6" cy="232.3" r="6.0"/><circle cx="411.6" cy="245.7" r="6.0"/><circle cx="425.0" cy="232.3" r="6.0"/><circle cx="425.0" cy="245.7" r="6.0"/><circle cx="438.4" cy="232.3" r="6.0"/><circle cx="438.4" cy="245.7" r="6.0"/><circle cx="438.4" cy="259.0" r="6.0"/><circle cx="451.8" cy="232.3" r="6.0"/><circle cx="451.8" cy="245.7" r="6.0"/><circle cx="465.2" cy="232.3" r="6.0"/><circle cx="465.2" cy="245.7" r="6.0"/><circle cx="478.5" cy="232.3" r="6.0"/><circle cx="491.9" cy="232.3" r="6.0"/><circle cx="532.1" cy="232.3" r="6.0"/><circle cx="545.5" cy="232.3" r="6.0"/><circle cx="558.8" cy="232.3" r="6.0"/><circle cx="558.8" cy="245.7" r="6.0"/><circle cx="572.2" cy="232.3" r="6.0"/><circle cx="572.2" cy="245.7" r="6.0"/><circle cx="572.2" cy="259.0" r="6.0"/><circle cx="585.6" cy="232.3" r="6.0"/><circle cx="585.6" cy="259.0" r="6.0"/><circle cx="585.6" cy="272.4" r="6.0"/><circle cx="599.0" cy="232.3" r="6.0"/><circle cx="599.0" cy="245.7" r="6.0"/><circle cx="612.4" cy="232.3" r="6.0"/><circle cx="612.4" cy="245.7" r="6.0"/><circle cx="625.8" cy="232.3" r="6.0"/><circle cx="625.8" cy="245.7" r="6.0"/><circle cx="625.8" cy="259.0" r="6.0"/><circle cx="639.1" cy="232.3" r="6.0"/><circle cx="639.1" cy="245.7" r="6.0"/><circle cx="639.1" cy="259.0" r="6.0"/><circle cx="625.8" cy="272.4" r="6.0"/><circle cx="639.1" cy="272.4" r="6.0"/><circle cx="652.5" cy="232.3" r="6.0"/><circle cx="652.5" cy="245.7" r="6.0"/><circle cx="652.5" cy="259.0" r="6.0"/><circle cx="665.9" cy="245.7" r="6.0"/><circle cx="665.9" cy="259.0" r="6.0"/><circle cx="652.5" cy="272.4" r="6.0"/><circle cx="665.9" cy="272.4" r="6.0"/><circle cx="679.3" cy="232.3" r="6.0"/><circle cx="679.3" cy="259.0" r="6.0"/><circle cx="692.7" cy="232.3" r="6.0"/><circle cx="692.7" cy="259.0" r="6.0"/><circle cx="679.3" cy="272.4" r="6.0"/><circle cx="692.7" cy="272.4" r="6.0"/><circle cx="706.0" cy="232.3" r="6.0"/><circle cx="719.4" cy="232.3" r="6.0"/><circle cx="706.0" cy="272.4" r="6.0"/><circle cx="732.8" cy="245.7" r="6.0"/><circle cx="746.2" cy="245.7" r="6.0"/><circle cx="746.2" cy="259.0" r="6.0"/><circle cx="759.6" cy="245.7" r="6.0"/><circle cx="759.6" cy="259.0" r="6.0"/><circle cx="773.0" cy="259.0" r="6.0"/><circle cx="773.0" cy="272.4" r="6.0"/><circle cx="786.3" cy="259.0" r="6.0"/><circle cx="786.3" cy="272.4" r="6.0"/><circle cx="799.7" cy="272.4" r="6.0"/><circle cx="197.5" cy="312.6" r="6.0"/><circle cx="210.9" cy="299.2" r="6.0"/><circle cx="210.9" cy="312.6" r="6.0"/><circle cx="197.5" cy="326.0" r="6.0"/><circle cx="210.9" cy="326.0" r="6.0"/><circle cx="224.3" cy="285.8" r="6.0"/><circle cx="224.3" cy="299.2" r="6.0"/><circle cx="224.3" cy="312.6" r="6.0"/><circle cx="237.7" cy="285.8" r="6.0"/><circle cx="237.7" cy="299.2" r="6.0"/><circle cx="237.7" cy="312.6" r="6.0"/><circle cx="224.3" cy="326.0" r="6.0"/><circle cx="251.0" cy="285.8" r="6.0"/><circle cx="251.0" cy="299.2" r="6.0"/><circle cx="264.4" cy="285.8" r="6.0"/><circle cx="277.8" cy="285.8" r="6.0"/><circle cx="358.1" cy="312.6" r="6.0"/><circle cx="371.5" cy="312.6" r="6.0"/><circle cx="358.1" cy="326.0" r="6.0"/><circle cx="371.5" cy="326.0" r="6.0"/><circle cx="585.6" cy="285.8" r="6.0"/><circle cx="585.6" cy="299.2" r="6.0"/><circle cx="585.6" cy="312.6" r="6.0"/><circle cx="585.6" cy="326.0" r="6.0"/><circle cx="599.0" cy="285.8" r="6.0"/><circle cx="599.0" cy="299.2" r="6.0"/><circle cx="599.0" cy="312.6" r="6.0"/><circle cx="612.4" cy="285.8" r="6.0"/><circle cx="599.0" cy="326.0" r="6.0"/><circle cx="625.8" cy="285.8" r="6.0"/><circle cx="639.1" cy="285.8" r="6.0"/><circle cx="652.5" cy="285.8" r="6.0"/><circle cx="652.5" cy="299.2" r="6.0"/><circle cx="665.9" cy="285.8" r="6.0"/><circle cx="665.9" cy="299.2" r="6.0"/><circle cx="665.9" cy="312.6" r="6.0"/><circle cx="665.9" cy="326.0" r="6.0"/><circle cx="679.3" cy="285.8" r="6.0"/><circle cx="679.3" cy="299.2" r="6.0"/><circle cx="679.3" cy="312.6" r="6.0"/><circle cx="692.7" cy="285.8" r="6.0"/><circle cx="692.7" cy="299.2" r="6.0"/><circle cx="692.7" cy="312.6" r="6.0"/><circle cx="679.3" cy="326.0" r="6.0"/><circle cx="692.7" cy="326.0" r="6.0"/><circle cx="706.0" cy="285.8" r="6.0"/><circle cx="706.0" cy="299.2" r="6.0"/><circle cx="706.0" cy="312.6" r="6.0"/><circle cx="719.4" cy="299.2" r="6.0"/><circle cx="719.4" cy="312.6" r="6.0"/><circle cx="706.0" cy="326.0" r="6.0"/><circle cx="719.4" cy="326.0" r="6.0"/><circle cx="732.8" cy="312.6" r="6.0"/><circle cx="732.8" cy="326.0" r="6.0"/><circle cx="786.3" cy="285.8" r="6.0"/><circle cx="799.7" cy="285.8" r="6.0"/><circle cx="799.7" cy="299.2" r="6.0"/><circle cx="813.1" cy="285.8" r="6.0"/><circle cx="813.1" cy="299.2" r="6.0"/><circle cx="813.1" cy="312.6" r="6.0"/><circle cx="826.5" cy="299.2" r="6.0"/><circle cx="826.5" cy="312.6" r="6.0"/><circle cx="826.5" cy="326.0" r="6.0"/><circle cx="839.9" cy="326.0" r="6.0"/><circle cx="157.4" cy="379.5" r="6.0"/><circle cx="170.8" cy="352.7" r="6.0"/><circle cx="170.8" cy="366.1" r="6.0"/><circle cx="184.1" cy="339.3" r="6.0"/><circle cx="184.1" cy="352.7" r="6.0"/><circle cx="184.1" cy="366.1" r="6.0"/><circle cx="170.8" cy="379.5" r="6.0"/><circle cx="197.5" cy="339.3" r="6.0"/><circle cx="197.5" cy="352.7" r="6.0"/><circle cx="210.9" cy="339.3" r="6.0"/><circle cx="344.7" cy="352.7" r="6.0"/><circle cx="344.7" cy="366.1" r="6.0"/><circle cx="344.7" cy="379.5" r="6.0"/><circle cx="358.1" cy="339.3" r="6.0"/><circle cx="358.1" cy="352.7" r="6.0"/><circle cx="358.1" cy="366.1" r="6.0"/><circle cx="358.1" cy="379.5" r="6.0"/><circle cx="384.9" cy="366.1" r="6.0"/><circle cx="398.3" cy="339.3" r="6.0"/><circle cx="384.9" cy="379.5" r="6.0"/><circle cx="572.2" cy="366.1" r="6.0"/><circle cx="585.6" cy="339.3" r="6.0"/><circle cx="585.6" cy="352.7" r="6.0"/><circle cx="585.6" cy="366.1" r="6.0"/><circle cx="599.0" cy="339.3" r="6.0"/><circle cx="679.3" cy="339.3" r="6.0"/><circle cx="692.7" cy="339.3" r="6.0"/><circle cx="692.7" cy="352.7" r="6.0"/><circle cx="692.7" cy="366.1" r="6.0"/><circle cx="706.0" cy="339.3" r="6.0"/><circle cx="706.0" cy="352.7" r="6.0"/><circle cx="706.0" cy="366.1" r="6.0"/><circle cx="719.4" cy="339.3" r="6.0"/><circle cx="719.4" cy="352.7" r="6.0"/><circle cx="719.4" cy="366.1" r="6.0"/><circle cx="706.0" cy="379.5" r="6.0"/><circle cx="719.4" cy="379.5" r="6.0"/><circle cx="732.8" cy="339.3" r="6.0"/><circle cx="732.8" cy="352.7" r="6.0"/><circle cx="732.8" cy="366.1" r="6.0"/><circle cx="746.2" cy="339.3" r="6.0"/><circle cx="746.2" cy="352.7" r="6.0"/><circle cx="746.2" cy="366.1" r="6.0"/><circle cx="732.8" cy="379.5" r="6.0"/><circle cx="746.2" cy="379.5" r="6.0"/><circle cx="826.5" cy="339.3" r="6.0"/><circle cx="839.9" cy="339.3" r="6.0"/><circle cx="839.9" cy="352.7" r="6.0"/><circle cx="839.9" cy="366.1" r="6.0"/><circle cx="853.3" cy="339.3" r="6.0"/><circle cx="853.3" cy="352.7" r="6.0"/><circle cx="853.3" cy="366.1" r="6.0"/><circle cx="853.3" cy="379.5" r="6.0"/><circle cx="866.6" cy="366.1" r="6.0"/><circle cx="866.6" cy="379.5" r="6.0"/><circle cx="130.6" cy="419.6" r="6.0"/><circle cx="130.6" cy="433.0" r="6.0"/><circle cx="144.0" cy="406.3" r="6.0"/><circle cx="144.0" cy="419.6" r="6.0"/><circle cx="157.4" cy="392.9" r="6.0"/><circle cx="157.4" cy="406.3" r="6.0"/><circle cx="144.0" cy="433.0" r="6.0"/><circle cx="277.8" cy="419.6" r="6.0"/><circle cx="291.2" cy="406.3" r="6.0"/><circle cx="291.2" cy="419.6" r="6.0"/><circle cx="277.8" cy="433.0" r="6.0"/><circle cx="304.6" cy="392.9" r="6.0"/><circle cx="304.6" cy="406.3" r="6.0"/><circle cx="344.7" cy="392.9" r="6.0"/><circle cx="344.7" cy="406.3" r="6.0"/><circle cx="344.7" cy="419.6" r="6.0"/><circle cx="344.7" cy="433.0" r="6.0"/><circle cx="358.1" cy="392.9" r="6.0"/><circle cx="358.1" cy="406.3" r="6.0"/><circle cx="358.1" cy="419.6" r="6.0"/><circle cx="371.5" cy="392.9" r="6.0"/><circle cx="371.5" cy="406.3" r="6.0"/><circle cx="358.1" cy="433.0" r="6.0"/><circle cx="384.9" cy="392.9" r="6.0"/><circle cx="384.9" cy="406.3" r="6.0"/><circle cx="384.9" cy="419.6" r="6.0"/><circle cx="384.9" cy="433.0" r="6.0"/><circle cx="505.3" cy="406.3" r="6.0"/><circle cx="505.3" cy="419.6" r="6.0"/><circle cx="505.3" cy="433.0" r="6.0"/><circle cx="518.7" cy="419.6" r="6.0"/><circle cx="518.7" cy="433.0" r="6.0"/><circle cx="706.0" cy="392.9" r="6.0"/><circle cx="706.0" cy="406.3" r="6.0"/><circle cx="706.0" cy="419.6" r="6.0"/><circle cx="719.4" cy="392.9" r="6.0"/><circle cx="719.4" cy="406.3" r="6.0"/><circle cx="719.4" cy="419.6" r="6.0"/><circle cx="719.4" cy="433.0" r="6.0"/><circle cx="732.8" cy="392.9" r="6.0"/><circle cx="732.8" cy="406.3" r="6.0"/><circle cx="732.8" cy="419.6" r="6.0"/><circle cx="746.2" cy="392.9" r="6.0"/><circle cx="746.2" cy="406.3" r="6.0"/><circle cx="746.2" cy="419.6" r="6.0"/><circle cx="746.2" cy="433.0" r="6.0"/><circle cx="759.6" cy="392.9" r="6.0"/><circle cx="759.6" cy="406.3" r="6.0"/><circle cx="759.6" cy="419.6" r="6.0"/><circle cx="759.6" cy="433.0" r="6.0"/><circle cx="866.6" cy="392.9" r="6.0"/><circle cx="866.6" cy="406.3" r="6.0"/><circle cx="880.0" cy="392.9" r="6.0"/><circle cx="880.0" cy="406.3" r="6.0"/><circle cx="880.0" cy="419.6" r="6.0"/><circle cx="880.0" cy="433.0" r="6.0"/><circle cx="893.4" cy="433.0" r="6.0"/><circle cx="117.2" cy="473.2" r="6.0"/><circle cx="130.6" cy="446.4" r="6.0"/><circle cx="130.6" cy="459.8" r="6.0"/><circle cx="130.6" cy="473.2" r="6.0"/><circle cx="117.2" cy="486.5" r="6.0"/><circle cx="251.0" cy="473.2" r="6.0"/><circle cx="264.4" cy="446.4" r="6.0"/><circle cx="264.4" cy="459.8" r="6.0"/><circle cx="264.4" cy="473.2" r="6.0"/><circle cx="251.0" cy="486.5" r="6.0"/><circle cx="277.8" cy="446.4" r="6.0"/><circle cx="304.6" cy="473.2" r="6.0"/><circle cx="318.0" cy="459.8" r="6.0"/><circle cx="318.0" cy="473.2" r="6.0"/><circle cx="304.6" cy="486.5" r="6.0"/><circle cx="318.0" cy="486.5" r="6.0"/><circle cx="331.3" cy="446.4" r="6.0"/><circle cx="331.3" cy="459.8" r="6.0"/><circle cx="331.3" cy="473.2" r="6.0"/><circle cx="344.7" cy="446.4" r="6.0"/><circle cx="344.7" cy="459.8" r="6.0"/><circle cx="344.7" cy="473.2" r="6.0"/><circle cx="331.3" cy="486.5" r="6.0"/><circle cx="344.7" cy="486.5" r="6.0"/><circle cx="358.1" cy="446.4" r="6.0"/><circle cx="358.1" cy="459.8" r="6.0"/><circle cx="358.1" cy="473.2" r="6.0"/><circle cx="371.5" cy="473.2" r="6.0"/><circle cx="358.1" cy="486.5" r="6.0"/><circle cx="371.5" cy="486.5" r="6.0"/><circle cx="384.9" cy="446.4" r="6.0"/><circle cx="384.9" cy="459.8" r="6.0"/><circle cx="505.3" cy="446.4" r="6.0"/><circle cx="505.3" cy="459.8" r="6.0"/><circle cx="505.3" cy="473.2" r="6.0"/><circle cx="505.3" cy="486.5" r="6.0"/><circle cx="518.7" cy="446.4" r="6.0"/><circle cx="518.7" cy="459.8" r="6.0"/><circle cx="518.7" cy="473.2" r="6.0"/><circle cx="532.1" cy="473.2" r="6.0"/><circle cx="518.7" cy="486.5" r="6.0"/><circle cx="706.0" cy="473.2" r="6.0"/><circle cx="719.4" cy="446.4" r="6.0"/><circle cx="719.4" cy="459.8" r="6.0"/><circle cx="706.0" cy="486.5" r="6.0"/><circle cx="746.2" cy="446.4" r="6.0"/><circle cx="746.2" cy="459.8" r="6.0"/><circle cx="746.2" cy="473.2" r="6.0"/><circle cx="746.2" cy="486.5" r="6.0"/><circle cx="759.6" cy="446.4" r="6.0"/><circle cx="759.6" cy="459.8" r="6.0"/><circle cx="759.6" cy="473.2" r="6.0"/><circle cx="773.0" cy="446.4" r="6.0"/><circle cx="759.6" cy="486.5" r="6.0"/><circle cx="773.0" cy="486.5" r="6.0"/><circle cx="880.0" cy="446.4" r="6.0"/><circle cx="893.4" cy="446.4" r="6.0"/><circle cx="893.4" cy="459.8" r="6.0"/><circle cx="893.4" cy="473.2" r="6.0"/><circle cx="893.4" cy="486.5" r="6.0"/><circle cx="906.8" cy="486.5" r="6.0"/><circle cx="103.8" cy="540.1" r="6.0"/><circle cx="117.2" cy="499.9" r="6.0"/><circle cx="117.2" cy="513.3" r="6.0"/><circle cx="237.7" cy="526.7" r="6.0"/><circle cx="237.7" cy="540.1" r="6.0"/><circle cx="251.0" cy="499.9" r="6.0"/><circle cx="251.0" cy="513.3" r="6.0"/><circle cx="264.4" cy="540.1" r="6.0"/><circle cx="277.8" cy="526.7" r="6.0"/><circle cx="291.2" cy="499.9" r="6.0"/><circle cx="291.2" cy="513.3" r="6.0"/><circle cx="291.2" cy="526.7" r="6.0"/><circle cx="277.8" cy="540.1" r="6.0"/><circle cx="291.2" cy="540.1" r="6.0"/><circle cx="304.6" cy="499.9" r="6.0"/><circle cx="304.6" cy="513.3" r="6.0"/><circle cx="304.6" cy="526.7" r="6.0"/><circle cx="318.0" cy="499.9" r="6.0"/><circle cx="318.0" cy="513.3" r="6.0"/><circle cx="318.0" cy="526.7" r="6.0"/><circle cx="304.6" cy="540.1" r="6.0"/><circle cx="318.0" cy="540.1" r="6.0"/><circle cx="331.3" cy="499.9" r="6.0"/><circle cx="331.3" cy="513.3" r="6.0"/><circle cx="331.3" cy="526.7" r="6.0"/><circle cx="344.7" cy="499.9" r="6.0"/><circle cx="344.7" cy="513.3" r="6.0"/><circle cx="344.7" cy="526.7" r="6.0"/><circle cx="331.3" cy="540.1" r="6.0"/><circle cx="344.7" cy="540.1" r="6.0"/><circle cx="358.1" cy="499.9" r="6.0"/><circle cx="358.1" cy="513.3" r="6.0"/><circle cx="358.1" cy="526.7" r="6.0"/><circle cx="371.5" cy="499.9" r="6.0"/><circle cx="371.5" cy="513.3" r="6.0"/><circle cx="371.5" cy="526.7" r="6.0"/><circle cx="358.1" cy="540.1" r="6.0"/><circle cx="371.5" cy="540.1" r="6.0"/><circle cx="384.9" cy="526.7" r="6.0"/><circle cx="384.9" cy="540.1" r="6.0"/><circle cx="505.3" cy="499.9" r="6.0"/><circle cx="505.3" cy="513.3" r="6.0"/><circle cx="518.7" cy="499.9" r="6.0"/><circle cx="518.7" cy="513.3" r="6.0"/><circle cx="518.7" cy="526.7" r="6.0"/><circle cx="532.1" cy="513.3" r="6.0"/><circle cx="532.1" cy="526.7" r="6.0"/><circle cx="518.7" cy="540.1" r="6.0"/><circle cx="532.1" cy="540.1" r="6.0"/><circle cx="572.2" cy="513.3" r="6.0"/><circle cx="572.2" cy="526.7" r="6.0"/><circle cx="585.6" cy="526.7" r="6.0"/><circle cx="572.2" cy="540.1" r="6.0"/><circle cx="585.6" cy="540.1" r="6.0"/><circle cx="746.2" cy="499.9" r="6.0"/><circle cx="746.2" cy="513.3" r="6.0"/><circle cx="746.2" cy="526.7" r="6.0"/><circle cx="746.2" cy="540.1" r="6.0"/><circle cx="759.6" cy="499.9" r="6.0"/><circle cx="759.6" cy="513.3" r="6.0"/><circle cx="759.6" cy="526.7" r="6.0"/><circle cx="786.3" cy="526.7" r="6.0"/><circle cx="799.7" cy="499.9" r="6.0"/><circle cx="799.7" cy="513.3" r="6.0"/><circle cx="799.7" cy="526.7" r="6.0"/><circle cx="786.3" cy="540.1" r="6.0"/><circle cx="893.4" cy="499.9" r="6.0"/><circle cx="893.4" cy="513.3" r="6.0"/><circle cx="893.4" cy="526.7" r="6.0"/><circle cx="906.8" cy="499.9" r="6.0"/><circle cx="906.8" cy="513.3" r="6.0"/><circle cx="906.8" cy="526.7" r="6.0"/><circle cx="893.4" cy="540.1" r="6.0"/><circle cx="920.2" cy="540.1" r="6.0"/><circle cx="103.8" cy="553.5" r="6.0"/><circle cx="103.8" cy="566.8" r="6.0"/><circle cx="103.8" cy="580.2" r="6.0"/><circle cx="103.8" cy="593.6" r="6.0"/><circle cx="224.3" cy="553.5" r="6.0"/><circle cx="237.7" cy="553.5" r="6.0"/><circle cx="237.7" cy="566.8" r="6.0"/><circle cx="237.7" cy="580.2" r="6.0"/><circle cx="251.0" cy="580.2" r="6.0"/><circle cx="264.4" cy="553.5" r="6.0"/><circle cx="264.4" cy="566.8" r="6.0"/><circle cx="264.4" cy="580.2" r="6.0"/><circle cx="251.0" cy="593.6" r="6.0"/><circle cx="264.4" cy="593.6" r="6.0"/><circle cx="277.8" cy="553.5" r="6.0"/><circle cx="277.8" cy="566.8" r="6.0"/><circle cx="277.8" cy="580.2" r="6.0"/><circle cx="291.2" cy="553.5" r="6.0"/><circle cx="291.2" cy="566.8" r="6.0"/><circle cx="291.2" cy="580.2" r="6.0"/><circle cx="277.8" cy="593.6" r="6.0"/><circle cx="291.2" cy="593.6" r="6.0"/><circle cx="304.6" cy="553.5" r="6.0"/><circle cx="304.6" cy="566.8" r="6.0"/><circle cx="304.6" cy="580.2" r="6.0"/><circle cx="318.0" cy="553.5" r="6.0"/><circle cx="318.0" cy="566.8" r="6.0"/><circle cx="318.0" cy="580.2" r="6.0"/><circle cx="304.6" cy="593.6" r="6.0"/><circle cx="318.0" cy="593.6" r="6.0"/><circle cx="331.3" cy="553.5" r="6.0"/><circle cx="331.3" cy="566.8" r="6.0"/><circle cx="331.3" cy="580.2" r="6.0"/><circle cx="344.7" cy="553.5" r="6.0"/><circle cx="344.7" cy="566.8" r="6.0"/><circle cx="344.7" cy="580.2" r="6.0"/><circle cx="331.3" cy="593.6" r="6.0"/><circle cx="344.7" cy="593.6" r="6.0"/><circle cx="358.1" cy="553.5" r="6.0"/><circle cx="358.1" cy="566.8" r="6.0"/><circle cx="358.1" cy="580.2" r="6.0"/><circle cx="371.5" cy="553.5" r="6.0"/><circle cx="371.5" cy="566.8" r="6.0"/><circle cx="371.5" cy="580.2" r="6.0"/><circle cx="358.1" cy="593.6" r="6.0"/><circle cx="371.5" cy="593.6" r="6.0"/><circle cx="384.9" cy="553.5" r="6.0"/><circle cx="384.9" cy="566.8" r="6.0"/><circle cx="384.9" cy="580.2" r="6.0"/><circle cx="398.3" cy="553.5" r="6.0"/><circle cx="398.3" cy="566.8" r="6.0"/><circle cx="398.3" cy="580.2" r="6.0"/><circle cx="384.9" cy="593.6" r="6.0"/><circle cx="398.3" cy="593.6" r="6.0"/><circle cx="411.6" cy="580.2" r="6.0"/><circle cx="425.0" cy="580.2" r="6.0"/><circle cx="411.6" cy="593.6" r="6.0"/><circle cx="425.0" cy="593.6" r="6.0"/><circle cx="518.7" cy="553.5" r="6.0"/><circle cx="518.7" cy="566.8" r="6.0"/><circle cx="532.1" cy="553.5" r="6.0"/><circle cx="532.1" cy="566.8" r="6.0"/><circle cx="532.1" cy="580.2" r="6.0"/><circle cx="532.1" cy="593.6" r="6.0"/><circle cx="545.5" cy="553.5" r="6.0"/><circle cx="545.5" cy="566.8" r="6.0"/><circle cx="545.5" cy="580.2" r="6.0"/><circle cx="558.8" cy="580.2" r="6.0"/><circle cx="545.5" cy="593.6" r="6.0"/><circle cx="558.8" cy="593.6" r="6.0"/><circle cx="585.6" cy="553.5" r="6.0"/><circle cx="585.6" cy="566.8" r="6.0"/><circle cx="585.6" cy="580.2" r="6.0"/><circle cx="585.6" cy="593.6" r="6.0"/><circle cx="599.0" cy="566.8" r="6.0"/><circle cx="599.0" cy="580.2" r="6.0"/><circle cx="599.0" cy="593.6" r="6.0"/><circle cx="719.4" cy="580.2" r="6.0"/><circle cx="719.4" cy="593.6" r="6.0"/><circle cx="732.8" cy="553.5" r="6.0"/><circle cx="732.8" cy="566.8" r="6.0"/><circle cx="732.8" cy="580.2" r="6.0"/><circle cx="746.2" cy="553.5" r="6.0"/><circle cx="746.2" cy="566.8" r="6.0"/><circle cx="732.8" cy="593.6" r="6.0"/><circle cx="746.2" cy="593.6" r="6.0"/><circle cx="759.6" cy="566.8" r="6.0"/><circle cx="759.6" cy="580.2" r="6.0"/><circle cx="773.0" cy="553.5" r="6.0"/><circle cx="773.0" cy="566.8" r="6.0"/><circle cx="759.6" cy="593.6" r="6.0"/><circle cx="786.3" cy="553.5" r="6.0"/><circle cx="893.4" cy="553.5" r="6.0"/><circle cx="893.4" cy="566.8" r="6.0"/><circle cx="920.2" cy="553.5" r="6.0"/><circle cx="920.2" cy="566.8" r="6.0"/><circle cx="920.2" cy="580.2" r="6.0"/><circle cx="933.5" cy="580.2" r="6.0"/><circle cx="933.5" cy="593.6" r="6.0"/><circle cx="103.8" cy="607.0" r="6.0"/><circle cx="103.8" cy="620.4" r="6.0"/><circle cx="103.8" cy="633.8" r="6.0"/><circle cx="90.5" cy="647.1" r="6.0"/><circle cx="103.8" cy="647.1" r="6.0"/><circle cx="237.7" cy="620.4" r="6.0"/><circle cx="237.7" cy="633.8" r="6.0"/><circle cx="251.0" cy="607.0" r="6.0"/><circle cx="251.0" cy="620.4" r="6.0"/><circle cx="251.0" cy="633.8" r="6.0"/><circle cx="264.4" cy="607.0" r="6.0"/><circle cx="264.4" cy="620.4" r="6.0"/><circle cx="264.4" cy="633.8" r="6.0"/><circle cx="251.0" cy="647.1" r="6.0"/><circle cx="264.4" cy="647.1" r="6.0"/><circle cx="277.8" cy="607.0" r="6.0"/><circle cx="277.8" cy="620.4" r="6.0"/><circle cx="277.8" cy="633.8" r="6.0"/><circle cx="291.2" cy="607.0" r="6.0"/><circle cx="291.2" cy="620.4" r="6.0"/><circle cx="291.2" cy="633.8" r="6.0"/><circle cx="277.8" cy="647.1" r="6.0"/><circle cx="291.2" cy="647.1" r="6.0"/><circle cx="304.6" cy="607.0" r="6.0"/><circle cx="304.6" cy="620.4" r="6.0"/><circle cx="304.6" cy="633.8" r="6.0"/><circle cx="318.0" cy="607.0" r="6.0"/><circle cx="318.0" cy="620.4" r="6.0"/><circle cx="318.0" cy="633.8" r="6.0"/><circle cx="304.6" cy="647.1" r="6.0"/><circle cx="318.0" cy="647.1" r="6.0"/><circle cx="331.3" cy="607.0" r="6.0"/><circle cx="331.3" cy="620.4" r="6.0"/><circle cx="331.3" cy="633.8" r="6.0"/><circle cx="344.7" cy="607.0" r="6.0"/><circle cx="344.7" cy="620.4" r="6.0"/><circle cx="344.7" cy="633.8" r="6.0"/><circle cx="331.3" cy="647.1" r="6.0"/><circle cx="344.7" cy="647.1" r="6.0"/><circle cx="358.1" cy="607.0" r="6.0"/><circle cx="358.1" cy="620.4" r="6.0"/><circle cx="358.1" cy="633.8" r="6.0"/><circle cx="371.5" cy="607.0" r="6.0"/><circle cx="371.5" cy="620.4" r="6.0"/><circle cx="371.5" cy="633.8" r="6.0"/><circle cx="358.1" cy="647.1" r="6.0"/><circle cx="384.9" cy="607.0" r="6.0"/><circle cx="384.9" cy="620.4" r="6.0"/><circle cx="384.9" cy="633.8" r="6.0"/><circle cx="398.3" cy="607.0" r="6.0"/><circle cx="398.3" cy="620.4" r="6.0"/><circle cx="398.3" cy="633.8" r="6.0"/><circle cx="411.6" cy="607.0" r="6.0"/><circle cx="411.6" cy="620.4" r="6.0"/><circle cx="411.6" cy="633.8" r="6.0"/><circle cx="425.0" cy="607.0" r="6.0"/><circle cx="425.0" cy="620.4" r="6.0"/><circle cx="425.0" cy="633.8" r="6.0"/><circle cx="438.4" cy="620.4" r="6.0"/><circle cx="438.4" cy="633.8" r="6.0"/><circle cx="451.8" cy="633.8" r="6.0"/><circle cx="438.4" cy="647.1" r="6.0"/><circle cx="451.8" cy="647.1" r="6.0"/><circle cx="465.2" cy="633.8" r="6.0"/><circle cx="465.2" cy="647.1" r="6.0"/><circle cx="532.1" cy="607.0" r="6.0"/><circle cx="545.5" cy="607.0" r="6.0"/><circle cx="545.5" cy="620.4" r="6.0"/><circle cx="545.5" cy="633.8" r="6.0"/><circle cx="558.8" cy="607.0" r="6.0"/><circle cx="558.8" cy="620.4" r="6.0"/><circle cx="558.8" cy="633.8" r="6.0"/><circle cx="545.5" cy="647.1" r="6.0"/><circle cx="558.8" cy="647.1" r="6.0"/><circle cx="572.2" cy="607.0" r="6.0"/><circle cx="572.2" cy="620.4" r="6.0"/><circle cx="572.2" cy="633.8" r="6.0"/><circle cx="585.6" cy="607.0" r="6.0"/><circle cx="585.6" cy="620.4" r="6.0"/><circle cx="585.6" cy="633.8" r="6.0"/><circle cx="572.2" cy="647.1" r="6.0"/><circle cx="585.6" cy="647.1" r="6.0"/><circle cx="599.0" cy="620.4" r="6.0"/><circle cx="599.0" cy="633.8" r="6.0"/><circle cx="692.7" cy="633.8" r="6.0"/><circle cx="679.3" cy="647.1" r="6.0"/><circle cx="692.7" cy="647.1" r="6.0"/><circle cx="706.0" cy="607.0" r="6.0"/><circle cx="706.0" cy="620.4" r="6.0"/><circle cx="706.0" cy="633.8" r="6.0"/><circle cx="719.4" cy="607.0" r="6.0"/><circle cx="719.4" cy="620.4" r="6.0"/><circle cx="719.4" cy="633.8" r="6.0"/><circle cx="706.0" cy="647.1" r="6.0"/><circle cx="732.8" cy="607.0" r="6.0"/><circle cx="732.8" cy="620.4" r="6.0"/><circle cx="746.2" cy="607.0" r="6.0"/><circle cx="933.5" cy="607.0" r="6.0"/><circle cx="933.5" cy="620.4" r="6.0"/><circle cx="946.9" cy="633.8" r="6.0"/><circle cx="946.9" cy="647.1" r="6.0"/><circle cx="77.1" cy="700.7" r="6.0"/><circle cx="90.5" cy="660.5" r="6.0"/><circle cx="90.5" cy="673.9" r="6.0"/><circle cx="90.5" cy="687.3" r="6.0"/><circle cx="90.5" cy="700.7" r="6.0"/><circle cx="130.6" cy="687.3" r="6.0"/><circle cx="130.6" cy="700.7" r="6.0"/><circle cx="144.0" cy="700.7" r="6.0"/><circle cx="237.7" cy="660.5" r="6.0"/><circle cx="237.7" cy="673.9" r="6.0"/><circle cx="237.7" cy="687.3" r="6.0"/><circle cx="237.7" cy="700.7" r="6.0"/><circle cx="251.0" cy="660.5" r="6.0"/><circle cx="251.0" cy="673.9" r="6.0"/><circle cx="251.0" cy="687.3" r="6.0"/><circle cx="264.4" cy="660.5" r="6.0"/><circle cx="264.4" cy="673.9" r="6.0"/><circle cx="264.4" cy="687.3" r="6.0"/><circle cx="251.0" cy="700.7" r="6.0"/><circle cx="264.4" cy="700.7" r="6.0"/><circle cx="277.8" cy="660.5" r="6.0"/><circle cx="277.8" cy="673.9" r="6.0"/><circle cx="277.8" cy="687.3" r="6.0"/><circle cx="291.2" cy="660.5" r="6.0"/><circle cx="291.2" cy="673.9" r="6.0"/><circle cx="304.6" cy="660.5" r="6.0"/><circle cx="304.6" cy="673.9" r="6.0"/><circle cx="318.0" cy="660.5" r="6.0"/><circle cx="465.2" cy="660.5" r="6.0"/><circle cx="478.5" cy="660.5" r="6.0"/><circle cx="478.5" cy="673.9" r="6.0"/><circle cx="491.9" cy="673.9" r="6.0"/><circle cx="505.3" cy="673.9" r="6.0"/><circle cx="505.3" cy="687.3" r="6.0"/><circle cx="518.7" cy="687.3" r="6.0"/><circle cx="532.1" cy="687.3" r="6.0"/><circle cx="558.8" cy="660.5" r="6.0"/><circle cx="558.8" cy="673.9" r="6.0"/><circle cx="558.8" cy="687.3" r="6.0"/><circle cx="545.5" cy="700.7" r="6.0"/><circle cx="558.8" cy="700.7" r="6.0"/><circle cx="572.2" cy="660.5" r="6.0"/><circle cx="572.2" cy="673.9" r="6.0"/><circle cx="572.2" cy="687.3" r="6.0"/><circle cx="585.6" cy="660.5" r="6.0"/><circle cx="585.6" cy="673.9" r="6.0"/><circle cx="585.6" cy="687.3" r="6.0"/><circle cx="599.0" cy="660.5" r="6.0"/><circle cx="599.0" cy="673.9" r="6.0"/><circle cx="599.0" cy="687.3" r="6.0"/><circle cx="612.4" cy="700.7" r="6.0"/><circle cx="665.9" cy="660.5" r="6.0"/><circle cx="679.3" cy="660.5" r="6.0"/><circle cx="893.4" cy="673.9" r="6.0"/><circle cx="893.4" cy="687.3" r="6.0"/><circle cx="906.8" cy="687.3" r="6.0"/><circle cx="893.4" cy="700.7" r="6.0"/><circle cx="906.8" cy="700.7" r="6.0"/><circle cx="946.9" cy="660.5" r="6.0"/><circle cx="946.9" cy="673.9" r="6.0"/><circle cx="946.9" cy="687.3" r="6.0"/><circle cx="960.3" cy="700.7" r="6.0"/><circle cx="77.1" cy="714.0" r="6.0"/><circle cx="77.1" cy="727.4" r="6.0"/><circle cx="77.1" cy="740.8" r="6.0"/><circle cx="77.1" cy="754.2" r="6.0"/><circle cx="117.2" cy="727.4" r="6.0"/><circle cx="117.2" cy="740.8" r="6.0"/><circle cx="130.6" cy="714.0" r="6.0"/><circle cx="130.6" cy="727.4" r="6.0"/><circle cx="117.2" cy="754.2" r="6.0"/><circle cx="144.0" cy="714.0" r="6.0"/><circle cx="144.0" cy="727.4" r="6.0"/><circle cx="144.0" cy="740.8" r="6.0"/><circle cx="144.0" cy="754.2" r="6.0"/><circle cx="237.7" cy="714.0" r="6.0"/><circle cx="251.0" cy="714.0" r="6.0"/><circle cx="251.0" cy="727.4" r="6.0"/><circle cx="251.0" cy="740.8" r="6.0"/><circle cx="264.4" cy="714.0" r="6.0"/><circle cx="264.4" cy="727.4" r="6.0"/><circle cx="264.4" cy="740.8" r="6.0"/><circle cx="251.0" cy="754.2" r="6.0"/><circle cx="264.4" cy="754.2" r="6.0"/><circle cx="277.8" cy="740.8" r="6.0"/><circle cx="277.8" cy="754.2" r="6.0"/><circle cx="291.2" cy="754.2" r="6.0"/><circle cx="371.5" cy="740.8" r="6.0"/><circle cx="384.9" cy="754.2" r="6.0"/><circle cx="398.3" cy="754.2" r="6.0"/><circle cx="411.6" cy="754.2" r="6.0"/><circle cx="425.0" cy="754.2" r="6.0"/><circle cx="438.4" cy="754.2" r="6.0"/><circle cx="558.8" cy="714.0" r="6.0"/><circle cx="572.2" cy="727.4" r="6.0"/><circle cx="585.6" cy="727.4" r="6.0"/><circle cx="585.6" cy="740.8" r="6.0"/><circle cx="599.0" cy="740.8" r="6.0"/><circle cx="612.4" cy="714.0" r="6.0"/><circle cx="612.4" cy="727.4" r="6.0"/><circle cx="612.4" cy="740.8" r="6.0"/><circle cx="599.0" cy="754.2" r="6.0"/><circle cx="612.4" cy="754.2" r="6.0"/><circle cx="625.8" cy="714.0" r="6.0"/><circle cx="625.8" cy="727.4" r="6.0"/><circle cx="853.3" cy="740.8" r="6.0"/><circle cx="853.3" cy="754.2" r="6.0"/><circle cx="880.0" cy="754.2" r="6.0"/><circle cx="893.4" cy="714.0" r="6.0"/><circle cx="893.4" cy="727.4" r="6.0"/><circle cx="893.4" cy="740.8" r="6.0"/><circle cx="906.8" cy="714.0" r="6.0"/><circle cx="906.8" cy="727.4" r="6.0"/><circle cx="893.4" cy="754.2" r="6.0"/><circle cx="920.2" cy="754.2" r="6.0"/><circle cx="946.9" cy="740.8" r="6.0"/><circle cx="960.3" cy="714.0" r="6.0"/><circle cx="960.3" cy="727.4" r="6.0"/><circle cx="946.9" cy="754.2" r="6.0"/><circle cx="77.1" cy="767.6" r="6.0"/><circle cx="77.1" cy="781.0" r="6.0"/><circle cx="90.5" cy="781.0" r="6.0"/><circle cx="90.5" cy="794.3" r="6.0"/><circle cx="90.5" cy="807.7" r="6.0"/><circle cx="117.2" cy="767.6" r="6.0"/><circle cx="117.2" cy="781.0" r="6.0"/><circle cx="117.2" cy="794.3" r="6.0"/><circle cx="117.2" cy="807.7" r="6.0"/><circle cx="144.0" cy="767.6" r="6.0"/><circle cx="144.0" cy="781.0" r="6.0"/><circle cx="157.4" cy="781.0" r="6.0"/><circle cx="157.4" cy="794.3" r="6.0"/><circle cx="157.4" cy="807.7" r="6.0"/><circle cx="170.8" cy="807.7" r="6.0"/><circle cx="264.4" cy="767.6" r="6.0"/><circle cx="264.4" cy="781.0" r="6.0"/><circle cx="251.0" cy="807.7" r="6.0"/><circle cx="277.8" cy="767.6" r="6.0"/><circle cx="277.8" cy="781.0" r="6.0"/><circle cx="277.8" cy="794.3" r="6.0"/><circle cx="291.2" cy="767.6" r="6.0"/><circle cx="291.2" cy="781.0" r="6.0"/><circle cx="291.2" cy="794.3" r="6.0"/><circle cx="304.6" cy="781.0" r="6.0"/><circle cx="304.6" cy="794.3" r="6.0"/><circle cx="318.0" cy="794.3" r="6.0"/><circle cx="304.6" cy="807.7" r="6.0"/><circle cx="318.0" cy="807.7" r="6.0"/><circle cx="465.2" cy="794.3" r="6.0"/><circle cx="572.2" cy="794.3" r="6.0"/><circle cx="585.6" cy="767.6" r="6.0"/><circle cx="585.6" cy="781.0" r="6.0"/><circle cx="585.6" cy="794.3" r="6.0"/><circle cx="572.2" cy="807.7" r="6.0"/><circle cx="585.6" cy="807.7" r="6.0"/><circle cx="599.0" cy="767.6" r="6.0"/><circle cx="599.0" cy="781.0" r="6.0"/><circle cx="599.0" cy="794.3" r="6.0"/><circle cx="599.0" cy="807.7" r="6.0"/><circle cx="639.1" cy="807.7" r="6.0"/><circle cx="652.5" cy="794.3" r="6.0"/><circle cx="665.9" cy="781.0" r="6.0"/><circle cx="665.9" cy="794.3" r="6.0"/><circle cx="652.5" cy="807.7" r="6.0"/><circle cx="665.9" cy="807.7" r="6.0"/><circle cx="679.3" cy="767.6" r="6.0"/><circle cx="679.3" cy="781.0" r="6.0"/><circle cx="826.5" cy="794.3" r="6.0"/><circle cx="826.5" cy="807.7" r="6.0"/><circle cx="839.9" cy="767.6" r="6.0"/><circle cx="839.9" cy="781.0" r="6.0"/><circle cx="839.9" cy="794.3" r="6.0"/><circle cx="853.3" cy="767.6" r="6.0"/><circle cx="853.3" cy="794.3" r="6.0"/><circle cx="839.9" cy="807.7" r="6.0"/><circle cx="853.3" cy="807.7" r="6.0"/><circle cx="866.6" cy="781.0" r="6.0"/><circle cx="866.6" cy="794.3" r="6.0"/><circle cx="880.0" cy="767.6" r="6.0"/><circle cx="880.0" cy="781.0" r="6.0"/><circle cx="906.8" cy="781.0" r="6.0"/><circle cx="906.8" cy="794.3" r="6.0"/><circle cx="906.8" cy="807.7" r="6.0"/><circle cx="920.2" cy="767.6" r="6.0"/><circle cx="933.5" cy="794.3" r="6.0"/><circle cx="920.2" cy="807.7" r="6.0"/><circle cx="933.5" cy="807.7" r="6.0"/><circle cx="946.9" cy="767.6" r="6.0"/><circle cx="946.9" cy="781.0" r="6.0"/><circle cx="103.8" cy="821.1" r="6.0"/><circle cx="103.8" cy="834.5" r="6.0"/><circle cx="117.2" cy="821.1" r="6.0"/><circle cx="117.2" cy="834.5" r="6.0"/><circle cx="130.6" cy="847.9" r="6.0"/><circle cx="144.0" cy="847.9" r="6.0"/><circle cx="170.8" cy="821.1" r="6.0"/><circle cx="170.8" cy="834.5" r="6.0"/><circle cx="184.1" cy="821.1" r="6.0"/><circle cx="184.1" cy="834.5" r="6.0"/><circle cx="197.5" cy="834.5" r="6.0"/><circle cx="197.5" cy="847.9" r="6.0"/><circle cx="210.9" cy="847.9" r="6.0"/><circle cx="210.9" cy="861.3" r="6.0"/><circle cx="224.3" cy="861.3" r="6.0"/><circle cx="251.0" cy="821.1" r="6.0"/><circle cx="251.0" cy="834.5" r="6.0"/><circle cx="251.0" cy="847.9" r="6.0"/><circle cx="264.4" cy="821.1" r="6.0"/><circle cx="264.4" cy="834.5" r="6.0"/><circle cx="264.4" cy="847.9" r="6.0"/><circle cx="264.4" cy="861.3" r="6.0"/><circle cx="277.8" cy="821.1" r="6.0"/><circle cx="277.8" cy="834.5" r="6.0"/><circle cx="291.2" cy="834.5" r="6.0"/><circle cx="291.2" cy="847.9" r="6.0"/><circle cx="291.2" cy="861.3" r="6.0"/><circle cx="304.6" cy="847.9" r="6.0"/><circle cx="318.0" cy="821.1" r="6.0"/><circle cx="304.6" cy="861.3" r="6.0"/><circle cx="331.3" cy="821.1" r="6.0"/><circle cx="331.3" cy="834.5" r="6.0"/><circle cx="344.7" cy="821.1" r="6.0"/><circle cx="344.7" cy="834.5" r="6.0"/><circle cx="344.7" cy="847.9" r="6.0"/><circle cx="358.1" cy="834.5" r="6.0"/><circle cx="371.5" cy="834.5" r="6.0"/><circle cx="384.9" cy="834.5" r="6.0"/><circle cx="384.9" cy="847.9" r="6.0"/><circle cx="398.3" cy="834.5" r="6.0"/><circle cx="411.6" cy="834.5" r="6.0"/><circle cx="425.0" cy="834.5" r="6.0"/><circle cx="425.0" cy="847.9" r="6.0"/><circle cx="438.4" cy="834.5" r="6.0"/><circle cx="438.4" cy="847.9" r="6.0"/><circle cx="451.8" cy="834.5" r="6.0"/><circle cx="451.8" cy="847.9" r="6.0"/><circle cx="438.4" cy="861.3" r="6.0"/><circle cx="451.8" cy="861.3" r="6.0"/><circle cx="465.2" cy="834.5" r="6.0"/><circle cx="465.2" cy="847.9" r="6.0"/><circle cx="478.5" cy="834.5" r="6.0"/><circle cx="491.9" cy="821.1" r="6.0"/><circle cx="491.9" cy="834.5" r="6.0"/><circle cx="505.3" cy="821.1" r="6.0"/><circle cx="518.7" cy="821.1" r="6.0"/><circle cx="532.1" cy="861.3" r="6.0"/><circle cx="545.5" cy="847.9" r="6.0"/><circle cx="558.8" cy="821.1" r="6.0"/><circle cx="558.8" cy="834.5" r="6.0"/><circle cx="558.8" cy="847.9" r="6.0"/><circle cx="545.5" cy="861.3" r="6.0"/><circle cx="558.8" cy="861.3" r="6.0"/><circle cx="572.2" cy="821.1" r="6.0"/><circle cx="572.2" cy="834.5" r="6.0"/><circle cx="572.2" cy="847.9" r="6.0"/><circle cx="585.6" cy="847.9" r="6.0"/><circle cx="572.2" cy="861.3" r="6.0"/><circle cx="585.6" cy="861.3" r="6.0"/><circle cx="599.0" cy="821.1" r="6.0"/><circle cx="599.0" cy="834.5" r="6.0"/><circle cx="599.0" cy="847.9" r="6.0"/><circle cx="612.4" cy="821.1" r="6.0"/><circle cx="612.4" cy="834.5" r="6.0"/><circle cx="612.4" cy="847.9" r="6.0"/><circle cx="599.0" cy="861.3" r="6.0"/><circle cx="612.4" cy="861.3" r="6.0"/><circle cx="625.8" cy="821.1" r="6.0"/><circle cx="625.8" cy="834.5" r="6.0"/><circle cx="625.8" cy="847.9" r="6.0"/><circle cx="639.1" cy="821.1" r="6.0"/><circle cx="625.8" cy="861.3" r="6.0"/><circle cx="639.1" cy="861.3" r="6.0"/><circle cx="652.5" cy="821.1" r="6.0"/><circle cx="719.4" cy="847.9" r="6.0"/><circle cx="706.0" cy="861.3" r="6.0"/><circle cx="719.4" cy="861.3" r="6.0"/><circle cx="732.8" cy="847.9" r="6.0"/><circle cx="732.8" cy="861.3" r="6.0"/><circle cx="746.2" cy="861.3" r="6.0"/><circle cx="773.0" cy="861.3" r="6.0"/><circle cx="799.7" cy="834.5" r="6.0"/><circle cx="799.7" cy="847.9" r="6.0"/><circle cx="786.3" cy="861.3" r="6.0"/><circle cx="799.7" cy="861.3" r="6.0"/><circle cx="813.1" cy="821.1" r="6.0"/><circle cx="813.1" cy="834.5" r="6.0"/><circle cx="826.5" cy="821.1" r="6.0"/><circle cx="826.5" cy="834.5" r="6.0"/><circle cx="839.9" cy="821.1" r="6.0"/><circle cx="880.0" cy="834.5" r="6.0"/><circle cx="880.0" cy="847.9" r="6.0"/><circle cx="893.4" cy="821.1" r="6.0"/><circle cx="893.4" cy="834.5" r="6.0"/><circle cx="893.4" cy="847.9" r="6.0"/><circle cx="906.8" cy="821.1" r="6.0"/><circle cx="906.8" cy="834.5" r="6.0"/><circle cx="920.2" cy="821.1" r="6.0"/><circle cx="224.3" cy="874.6" r="6.0"/><circle cx="237.7" cy="874.6" r="6.0"/><circle cx="264.4" cy="874.6" r="6.0"/><circle cx="264.4" cy="888.0" r="6.0"/><circle cx="277.8" cy="874.6" r="6.0"/><circle cx="277.8" cy="888.0" r="6.0"/><circle cx="291.2" cy="901.4" r="6.0"/><circle cx="304.6" cy="874.6" r="6.0"/><circle cx="318.0" cy="874.6" r="6.0"/><circle cx="318.0" cy="888.0" r="6.0"/><circle cx="331.3" cy="888.0" r="6.0"/><circle cx="331.3" cy="901.4" r="6.0"/><circle cx="344.7" cy="901.4" r="6.0"/><circle cx="344.7" cy="914.8" r="6.0"/><circle cx="358.1" cy="914.8" r="6.0"/><circle cx="371.5" cy="914.8" r="6.0"/><circle cx="384.9" cy="914.8" r="6.0"/><circle cx="398.3" cy="914.8" r="6.0"/><circle cx="438.4" cy="874.6" r="6.0"/><circle cx="451.8" cy="874.6" r="6.0"/><circle cx="451.8" cy="888.0" r="6.0"/><circle cx="451.8" cy="901.4" r="6.0"/><circle cx="451.8" cy="914.8" r="6.0"/><circle cx="465.2" cy="874.6" r="6.0"/><circle cx="465.2" cy="888.0" r="6.0"/><circle cx="465.2" cy="901.4" r="6.0"/><circle cx="478.5" cy="888.0" r="6.0"/><circle cx="478.5" cy="901.4" r="6.0"/><circle cx="465.2" cy="914.8" r="6.0"/><circle cx="478.5" cy="914.8" r="6.0"/><circle cx="491.9" cy="888.0" r="6.0"/><circle cx="491.9" cy="901.4" r="6.0"/><circle cx="505.3" cy="874.6" r="6.0"/><circle cx="505.3" cy="888.0" r="6.0"/><circle cx="505.3" cy="901.4" r="6.0"/><circle cx="491.9" cy="914.8" r="6.0"/><circle cx="505.3" cy="914.8" r="6.0"/><circle cx="518.7" cy="874.6" r="6.0"/><circle cx="518.7" cy="888.0" r="6.0"/><circle cx="518.7" cy="901.4" r="6.0"/><circle cx="532.1" cy="874.6" r="6.0"/><circle cx="532.1" cy="888.0" r="6.0"/><circle cx="532.1" cy="901.4" r="6.0"/><circle cx="518.7" cy="914.8" r="6.0"/><circle cx="532.1" cy="914.8" r="6.0"/><circle cx="545.5" cy="874.6" r="6.0"/><circle cx="545.5" cy="888.0" r="6.0"/><circle cx="545.5" cy="901.4" r="6.0"/><circle cx="558.8" cy="874.6" r="6.0"/><circle cx="558.8" cy="888.0" r="6.0"/><circle cx="558.8" cy="901.4" r="6.0"/><circle cx="545.5" cy="914.8" r="6.0"/><circle cx="558.8" cy="914.8" r="6.0"/><circle cx="572.2" cy="874.6" r="6.0"/><circle cx="572.2" cy="888.0" r="6.0"/><circle cx="572.2" cy="901.4" r="6.0"/><circle cx="585.6" cy="874.6" r="6.0"/><circle cx="585.6" cy="888.0" r="6.0"/><circle cx="585.6" cy="901.4" r="6.0"/><circle cx="572.2" cy="914.8" r="6.0"/><circle cx="585.6" cy="914.8" r="6.0"/><circle cx="599.0" cy="874.6" r="6.0"/><circle cx="599.0" cy="888.0" r="6.0"/><circle cx="599.0" cy="901.4" r="6.0"/><circle cx="612.4" cy="874.6" r="6.0"/><circle cx="612.4" cy="888.0" r="6.0"/><circle cx="612.4" cy="901.4" r="6.0"/><circle cx="599.0" cy="914.8" r="6.0"/><circle cx="612.4" cy="914.8" r="6.0"/><circle cx="625.8" cy="874.6" r="6.0"/><circle cx="625.8" cy="888.0" r="6.0"/><circle cx="625.8" cy="901.4" r="6.0"/><circle cx="639.1" cy="874.6" r="6.0"/><circle cx="639.1" cy="888.0" r="6.0"/><circle cx="639.1" cy="901.4" r="6.0"/><circle cx="625.8" cy="914.8" r="6.0"/><circle cx="639.1" cy="914.8" r="6.0"/><circle cx="652.5" cy="888.0" r="6.0"/><circle cx="652.5" cy="901.4" r="6.0"/><circle cx="665.9" cy="888.0" r="6.0"/><circle cx="652.5" cy="914.8" r="6.0"/><circle cx="665.9" cy="914.8" r="6.0"/><circle cx="679.3" cy="874.6" r="6.0"/><circle cx="679.3" cy="888.0" r="6.0"/><circle cx="692.7" cy="874.6" r="6.0"/><circle cx="706.0" cy="874.6" r="6.0"/><circle cx="706.0" cy="901.4" r="6.0"/><circle cx="719.4" cy="874.6" r="6.0"/><circle cx="719.4" cy="888.0" r="6.0"/><circle cx="719.4" cy="901.4" r="6.0"/><circle cx="732.8" cy="874.6" r="6.0"/><circle cx="732.8" cy="901.4" r="6.0"/><circle cx="746.2" cy="888.0" r="6.0"/><circle cx="759.6" cy="888.0" r="6.0"/><circle cx="773.0" cy="874.6" r="6.0"/></g>
  <use href="#sq" fill="none" stroke="url(#tileRim)" stroke-width="6" clip-path="url(#tile)"/>
  <use href="#sq" fill="none" stroke="#0000001f" stroke-width="3"/>
</svg>
